/* XPM */
static char *_1d32f08bfb64cf3f12fd8adc999241c94E5d635FEge9V4V[] = {
/* columns rows colors chars-per-pixel */
"64 64 3 1 ",
"  c black",
". c #FFF200",
"X c #720899",
/* pixels */
"                               XX                               ",
"                             XXXXXX                             ",
"                           XXXXXXXXXX                           ",
"                         XXXXXXXXXXXXXX                         ",
"                        XXXXXXXXXXXXXXXX                        ",
"                      XXXXXXXXXXXXXXXXXXXX                      ",
"                    XXXXXXXXXXXXXXXXXXXXXXXX                    ",
"                   XXXXXXXXXXXXXXXXXXXXXXXXXX                   ",
"                 XXXXXXXXXXXXXXXXXXXXXXXXXXXXXX                 ",
"               XXXXXXXXXXXXXXXXXXXXXXXXXXXXXXXXXX               ",
"             XXXXXXXXXXXXXXXXXXXXXXXXXXXXXXXXXXXXXX             ",
"            XXXXXXXXXXXXXXXXXXXXXXXXXXXXXXXXXXXXXXXX            ",
"          XXXXXXXXXXXXXXXXXXXXXXXXXXXXXXXXXXXXXXXXXXXX          ",
"        XXXXXXXXXXXXXXXXXXXXXXXXXXXXXXXXXXXXXXXXXXXXXXXX        ",
"       XXXXXXXXXXXXXXXXXXXXXXXXXXXXXXXXXXXXXXXXXXXXXXXXXX       ",
"     XXXXXXXXXXXXXXXXXXXXXXXXXXXXXXXXXXXXXXXXXXXXXXXXXXXXXX     ",
"   XXXXXXXXXXXXXXXXXXXXXXXXXXXXXXXXXXXXXXXXXXXXXXXXXXXXXXXXXX   ",
" XXXXXXXXXXXXXXXXXXXXXXXXXXXXXXXXXXXXXXXXXXXXXXXXXXXXXXXXXXXXXX ",
"XXXXXXXXXXXXXXXXXXXXXXXXXXXXXXXXXXXXXXXXXXXXXXXXXXXXXXXXXXXXXXXX",
".............. .....              ..... .... ...................",
".............. ......            ...... .... ...................",
".............. .......          ....... .... ...................",
"..............  .......        .......  .... ...................",
"....             .......      .......                ....       ",
"....              ......      ......    ....         ....       ",
"....               ......    ......     ....         ....       ",
"....                ......  ......      ....         ....       ",
"....                ..............      ....         ....       ",
"....                 ............       ....         ....       ",
"....                  ..........        ....         ....       ",
"..........             ........         ....         ....       ",
"..........             ........         ....         ....       ",
"..........            ..........        ....         ....       ",
"....                 ............       ....         ....       ",
"....                ..............      ....         ....       ",
"....                ......  ......      ....         ....       ",
"....               ......    ......     ....         ....       ",
"....              ......      ......    ....         ....       ",
"....             .......      .......   ....         ....       ",
"....            .......        .......  ....         ....       ",
".............. .......          ....... ....         ....       ",
".............. ......            ...... ....         ....       ",
".............. .....              ..... ....         ....       ",
".............. ....                .... ....                    ",
"XXXXXXXXXXXXXXXXXXXXXXXXXXXXXXXXXXXXXXXXXXXXXXXXXXXXXXXXXXXXXXXX",
" XXXXXXXXXXXXXXXXXXXXXXXXXXXXXXXXXXXXXXXXXXXXXXXXXXXXXXXXXXXXXX ",
"   XXXXXXXXXXXXXXXXXXXXXXXXXXXXXXXXXXXXXXXXXXXXXXXXXXXXXXXXXX   ",
"     XXXXXXXXXXXXXXXXXXXXXXXXXXXXXXXXXXXXXXXXXXXXXXXXXXXXXX     ",
"      XXXXXXXXXXXXXXXXXXXXXXXXXXXXXXXXXXXXXXXXXXXXXXXXXXXX      ",
"        XXXXXXXXXXXXXXXXXXXXXXXXXXXXXXXXXXXXXXXXXXXXXXXX        ",
"         XXXXXXXXXXXXXXXXXXXXXXXXXXXXXXXXXXXXXXXXXXXXXX         ",
"           XXXXXXXXXXXXXXXXXXXXXXXXXXXXXXXXXXXXXXXXXX           ",
"             XXXXXXXXXXXXXXXXXXXXXXXXXXXXXXXXXXXXXX             ",
"              XXXXXXXXXXXXXXXXXXXXXXXXXXXXXXXXXXXX              ",
"                XXXXXXXXXXXXXXXXXXXXXXXXXXXXXXXX                ",
"                  XXXXXXXXXXXXXXXXXXXXXXXXXXXX                  ",
"                   XXXXXXXXXXXXXXXXXXXXXXXXXX                   ",
"                     XXXXXXXXXXXXXXXXXXXXXX                     ",
"                       XXXXXXXXXXXXXXXXXX                       ",
"                        XXXXXXXXXXXXXXXX                        ",
"                          XXXXXXXXXXXX                          ",
"                           XXXXXXXXXX                           ",
"                             XXXXXX                             ",
"                               XX                               "
};
