/* XPM */
static char *b026772c45aa4da8c2d500c92fb941e5BTjxZNofsUpQWlvk[] = {
/* columns rows colors chars-per-pixel */
"52 52 6 1 ",
"  c black",
". c #0C6624",
"X c #22B14C",
"o c #FFF200",
"O c #F7AB79",
"+ c white",
/* pixels */
"XXXXXXXXXXXXXXXXXXXXXXXXXXXXXXXXXXXXXXXXXXXXXXXXXXXX",
"XXXXXXXXXXXXXXXXXXXXXXXXXXXXXXXXXXXXXXXXXXXXXXXXXXXX",
"XXXXXXXXXXXXXXXXXXXX            XXXXXXXXXXXXXXXXXXXX",
"XXXXXXXXXXXXXXXXXXXX            XXXXXXXXXXXXXXXXXXXX",
"XXXXXXXXXXXXXXXXX    .........    XXXXXXXXXXXXXXXXXX",
"XXXXXXXXXXXXXXXXX    .........    XXXXXXXXXXXXXXXXXX",
"XXXXXXXXXXXXXXX    .............    XXXXXXXXXXXXXXXX",
"XXXXXXXXXXXXXXX    .............    XXXXXXXXXXXXXXXX",
"XXXXXXXXXXXXX    .................    XXXXXXXXXXXXXX",
"XXXXXXXXXXXXX    .................    XXXXXXXXXXXXXX",
"XXXXXXXXXXXXX  ..  ooooooooooooo  ..  XXXXXXXXXXXXXX",
"XXXXXXXXXXXXX  ..  ooooooooooooo  ..  XXXXXXXXXXXXXX",
"XXXXXXXXXXXXX    ooooooooooooooooo    XXXXXXXXXXXXXX",
"XXXXXXXXXXXXX    ooooooooooooooooo    XXXXXXXXXXXXXX",
"XXXXXXXXXXX    oooo  oooooooo  ooooo    XXXXXXXXXXXX",
"XXXXXXXXXXX    oooo  oooooooo  ooooo    XXXXXXXXXXXX",
"XXXXXXX        oo  oooooooo      ooo        XXXXXXXX",
"XXXXXXX        oo  oooooooo      ooo        XXXXXXXX",
"XXXXXXX  OOOO    oooooooo    OO  ooo  OOOO  XXXXXXXX",
"XXXXXXX  OOOO    oooooooo    OO  ooo  OOOO  XXXXXXXX",
"XXXXXXXXX        oooo      OOOO  ooo      XXXXXXXXXX",
"XXXXXXXXX        oooo      OOOO  ooo      XXXXXXXXXX",
"XXXXXXXXXXX  oo          OO         oo  XXXXXXXXXXXX",
"XXXXXXXXXXX  oo          OO         oo  XXXXXXXXXXXX",
"XXXXXXXXXXX  oo  ++    OOOO     ++  oo  XXXXXXXXXXXX",
"XXXXXXXXXXX  oo  ++    OOOO     ++  oo  XXXXXXXXXXXX",
"XXXXXXXXXXX      OO  ++OOOO++   OO      XXXXXXXXXXXX",
"XXXXXXXXXXX      OO  ++OOOO++   OO      XXXXXXXXXXXX",
"XXXXXXXXXXXXX      OOOOOOOOOOOOO      XXXXXXXXXXXXXX",
"XXXXXXXXXXXXX      OOOOOOOOOOOOO      XXXXXXXXXXXXXX",
"XXXXXXXXXXXXXXX                     XXXXXXXXXXXXXXXX",
"XXXXXXXXXXXXXXX                     XXXXXXXXXXXXXXXX",
"XXXXXXXXXXXXX  ..  .............  ..  XXXXXXXXXXXXXX",
"XXXXXXXXXXXXX  ..  .............  ..  XXXXXXXXXXXXXX",
"XXXXXXXXXXX  ....  .............  ....  XXXXXXXXXXXX",
"XXXXXXXXXXX  ....  .............  ....  XXXXXXXXXXXX",
"XXXXXXXXX  OOOO    .............    OOOO  XXXXXXXXXX",
"XXXXXXXXX  OOOO    .............    OOOO  XXXXXXXXXX",
"XXXXXXXXX    OO  ..    oooo     ..  OO    XXXXXXXXXX",
"XXXXXXXXX    OO  ..    oooo     ..  OO    XXXXXXXXXX",
"XXXXXXXXXXX      ....  oooo  ....       XXXXXXXXXXXX",
"XXXXXXXXXXX      ....  oooo  ....       XXXXXXXXXXXX",
"XXXXXXXXXXXXXXX     .........      XXXXXXXXXXXXXXXXX",
"XXXXXXXXXXXXXXX     .........      XXXXXXXXXXXXXXXXX",
"XXXXXXXXXXXXX  ......        ......  XXXXXXXXXXXXXXX",
"XXXXXXXXXXXXX  ......        ......  XXXXXXXXXXXXXXX",
"XXXXXXXXXXXXX  ....    XXXX    ....  XXXXXXXXXXXXXXX",
"XXXXXXXXXXXXX  ....    XXXX    ....  XXXXXXXXXXXXXXX",
"XXXXXXXXXXXXXXX      XXXXXXXX      XXXXXXXXXXXXXXXXX",
"XXXXXXXXXXXXXXX      XXXXXXXX      XXXXXXXXXXXXXXXXX",
"XXXXXXXXXXXXXXXXXXXXXXXXXXXXXXXXXXXXXXXXXXXXXXXXXXXX",
"XXXXXXXXXXXXXXXXXXXXXXXXXXXXXXXXXXXXXXXXXXXXXXXXXXXX"
};
