/* XPM */
static char *_3dc10a66d69427fc0fdc659efbe39b8mU6SrB6mIt7EYMdu[] = {
/* columns rows colors chars-per-pixel */
"64 64 4 1 ",
"  c black",
". c #FFF200",
"X c #F2FF00",
"o c white",
/* pixels */
"                                                                ",
"                                                                ",
"                                                                ",
"                          ...........                           ",
"                       .................                        ",
"                    .......................                     ",
"                  ............................X                 ",
"                 ...............................                ",
"               ..X...............................               ",
"              ..XX............................XX...             ",
"             .XXXX............................XXX.X.            ",
"            .XXXXX............................XXXX.X.           ",
"           .XXXXXX............................XXXXX.X.          ",
"          .XXXXXXX............................XXXXXX.X.         ",
"         .XXXXXXXX............................XXXXXXX.X.        ",
"        ..XXXXXXXX............................XXXXXXXX..X       ",
"        .XXXXXXXXX............................XXXXXXXX.X.       ",
"       .XXXXXXXXXX............................XXXXXXXXX.X.      ",
"      ........................................X............     ",
"      ........................................X............     ",
"      ........................................X............     ",
"     .........................................X.............    ",
"     .........................................X.............    ",
"    .......XX      ..........................................   ",
"    .......XX      ..........................................   ",
"    .......          ........................................   ",
"    .......          ........................................   ",
"   ........oooo      .........................................  ",
"   ........oooo      .........................................  ",
"   ........XXoo    ...........................................  ",
"   ........XXoo    ...........................................  ",
"   ...........................................X...............  ",
"   ...................XXXXXXXXX   XXXXXXXXXXXXX...............  ",
"   ................XXXXXXXXXXXX   XXXXXXXXXXX.................  ",
"   ................XXXXXXXXXXX     XXXXXXXXXXX................  ",
"   .................XXXXXXXXXX     XXXXXXXXXXX................  ",
"   .................XX.XXXXXX      XXXXXXXX...................  ",
"   ....................XXXXXX       XXXXXXX...................  ",
"    ...................XXXXX        XXXXXXX..................   ",
"    ...................XXXXX        XXXXXXX..................   ",
"    ...................XXXX          XXXXXX..................   ",
"    ...................XXXX          XXXXXX..................   ",
"     .................XXXX            XXXXX.................    ",
"     .............XX..XXXX            XXXXX.................    ",
"      ............XXXXXXX             XXXXXXXX.............     ",
"      ............XXXXXXX              XXXXXXX.............     ",
"      ............XXXXXX               XXXXXXX.............     ",
"       .XXXXXXXXXXXXXXXX               XXXXXXXXXXXXXXXX.X.      ",
"        .XXXXXXXXXXXXXX                 XXXXXXXXXXXXXX.X.       ",
"        ..XXXXXXXXXXXXX                 XXXXXXXXXXXXXX..X       ",
"         .XXXXXXXXXXXX                  XXXXXXXXXXXXX.X.        ",
"          .XXXXXXXXXXX                   XXXXXXXXXXX.X.         ",
"           .XXXXXXXXX                    XXXXXXXXXX.X.          ",
"            .XXXXXXXX                    XXXXXXXXX.X.           ",
"             .XXXXXX                      XXXXXXX.X.            ",
"              ..XXXX                      XXXXXX...             ",
"               ..XX                        XXX...X              ",
"                 .X                        XX...                ",
"                                           ...X                 ",
"                                            ..                  ",
"                                                                ",
"                                                                ",
"                                                                ",
"                                                                "
};
