/* XPM */
static char *_e4955fb16db427a8d691e80522fa216YwUPu0wZBnyxAo04[] = {
/* columns rows colors chars-per-pixel */
"64 64 4 1 ",
"  c black",
". c #FFF200",
"X c #F2FF00",
"o c white",
/* pixels */
"                                                                ",
"                                                                ",
"                                                                ",
"                           ...........                          ",
"                       ....XXXXXXXXXXX....                      ",
"                     ..XXXXXXXXXXXXXXXXXXX..                    ",
"                  X..XXXXXXXXXXXXXXXXXXXXXXX..X                 ",
"                 ..XXXXXXXXXXXXXXXXXXXXXXXXXXX..                ",
"               X.XXXXXXXXXXXXXXXXXXXXXXXXXXXXXXX.               ",
"              ..XXXXXXXXXXXXXXXXXXXXXXXXXXXXXXXXX..             ",
"             .XXXXXXXXXXXXXXXXXXXXXXXXXXXXXXXXXXXXX.            ",
"            .XXXXXXXXXXXXoo  XXXXXX........XXXXXXXXX.           ",
"           .XXXXXXXXXXXXXoo  XXXXXX........XXXXXXXXXX.          ",
"          .XXXXXXXXXXXXoooo    XXXX........XXXXXXXXXXX.         ",
"         .XXXXXXXXXXXXXoooo    XXXX........XXXXXXXXXXXX.        ",
"        X.XXXXXXXXXXXXX        XXXX........XXXXXXXXXXXX.X       ",
"        .XXXXXXXXXXXXXX        XXXX........XXXXXXXXXXXXX.       ",
"       .XXXXXXXXXXXXXXX        XXXX........XXXXXXXXXXXXXX.      ",
"      X.XXXXXXXXXXXXXXX        XXX.........................     ",
"        XXXXXXXXXXXXXXX        XXX.........................     ",
"          XXXXXXXXXXXXXXX    XXXXX.........................     ",
"            XXXXXXXXXXXXXXXXXXXXXX..........................    ",
"              XXXXXXXXXXXXXXXXXXXX..........................    ",
"                XXXXXXXXXXXXXXXXXX...........................   ",
"                  XXXXXXXXXXXXXXXX...........................   ",
"                    XXXXXXXXXXXXXX...........................   ",
"                      XXXXXXXXXXXX...........................   ",
"                        XXXXXXXXXX............................  ",
"                          XXXXXXXX............................  ",
"                            XXXXXX............................  ",
"                              XXXX............................  ",
"                                XX............................  ",
"                                  ............................  ",
"                                  ............................  ",
"                                  ............................  ",
"                                XX............................  ",
"                             XXXXX............................  ",
"                          XXXXXXXX............................  ",
"                        XXXXXXXXXX...........................   ",
"                     XXXXXXXXXXXXX...........................   ",
"                  XXXXXXXXXXXXXXXX...........................   ",
"               XXXXXXXXXXXXXXXXXXX...........................   ",
"            XXXXXXXXXXXXXXXXXXXXXX..........................    ",
"          XXXXXXXXXXXXXXXXXXXXXXXX..........................    ",
"      .XXXXXXXXXXXXXXX........XXXX.........................     ",
"      .XXXXXXXXXXXXXXX........XXXX.........................     ",
"      X.XXXXXXXXXXXXXX........XXXX.........................     ",
"       .XXXXXXXXXXXXXXXXXXXXXXXXXXXXXXXXXXXXXXXXXXXXXXXXX.      ",
"        .XXXXXXXXXXXXXXXXXXXXXXXXXXXXXXXXXXXXXXXXXXXXXXX.       ",
"        X.XXXXXXXXXXXXXXXXXXXXXXXXXXXXXXXXXXXXXXXXXXXXX.X       ",
"         .XXXXXXXXXXXXXXXXXXXXXXXXXXXXXXXXXXXXXXXXXXXXX.        ",
"          .XXXXXXXXXXXXXXXXXXXXXXXXXXXXXXXXXXXXXXXXXXX.         ",
"           .XXXXXXXXXXXXXXXXXXXXXXXXXXXXXXXXXXXXXXXXX.          ",
"            .XXXXXXXXXXXXXXXXXXXXXXXXXXXXXXXXXXXXXXX.           ",
"             .XXXXXXXXXXXXXXXXXXXXXXXXXXXXXXXXXXXXX.            ",
"              ..XXXXXXXXXXXXXXXXXXXXXXXXXXXXXXXXX..             ",
"               X.XXXXXXXXXXXXXXXXXXXXXXXXXXXXXXX.X              ",
"                 ..XXXXXXXXXXXXXXXXXXXXXXXXXXX..                ",
"                  X..XXXXXXXXXXXXXXXXXXXXXXX..X                 ",
"                     ..XXXXXXXXXXXXXXXXXXX..                    ",
"                       ....XXXXXXXXXXX....                      ",
"                           ...........                          ",
"                                                                ",
"                                                                "
};
