/* XPM */
static char *efbafb0094f24bcae06c0bee1043a84bwipiCezeplj3kmfZ[] = {
/* columns rows colors chars-per-pixel */
"64 64 3 1 ",
"  c black",
". c #FFF200",
"X c white",
/* pixels */
"                                                                ",
"                                                                ",
"                                                                ",
"                           ...........                          ",
"                       ...................                      ",
"                     .......................                    ",
"                  .............................                 ",
"                 ...............................                ",
"               ..................................               ",
"              .....................................             ",
"             .......................................            ",
"            .........................  XX............           ",
"           ..........................  XX.............          ",
"          .........................    XXXX............         ",
"         ..........................    XXXX.............        ",
"        ...........................        ..............       ",
"        ...........................        ..............       ",
"       ............................        ...............      ",
"      .............................        ................     ",
"      ...............................    ..................     ",
"      ...............................    .................      ",
"     ..................................................         ",
"     ................................................           ",
"    ..............................................              ",
"    ...........................................                 ",
"    ........................................                    ",
"    .....................................                       ",
"   ....................................                         ",
"   .................................                            ",
"   ..............................                               ",
"   ............................                                 ",
"   ............................                                 ",
"   ............................                                 ",
"   ..............................                               ",
"   ................................                             ",
"   ..................................                           ",
"   ....................................                         ",
"   ......................................                       ",
"    .......................................                     ",
"    .........................................                   ",
"    ...........................................                 ",
"    .............................................               ",
"     ..............................................             ",
"     ................................................           ",
"      .................................................         ",
"      ...................................................       ",
"      .....................................................     ",
"       ...................................................      ",
"        .................................................       ",
"        .................................................       ",
"         ...............................................        ",
"          .............................................         ",
"           ...........................................          ",
"            .........................................           ",
"             .......................................            ",
"              .....................................             ",
"               ...................................              ",
"                 ...............................                ",
"                  .............................                 ",
"                     .......................                    ",
"                       ...................                      ",
"                           ...........                          ",
"                                                                ",
"                                                                "
};
