/* XPM */
static char *_5ce9dd4255c49aedd4e273abac473a2aQKYhr8wNYHYUSXZ[] = {
/* columns rows colors chars-per-pixel */
"64 64 4 1 ",
"  c black",
". c #0C6624",
"X c #5487FF",
"o c #C3C3C3",
/* pixels */
"                                                                ",
"                                                                ",
"                                                                ",
"                                                                ",
"                                                                ",
"                                                                ",
"                                                                ",
"                                                                ",
"                                                                ",
"                                                                ",
"                                                                ",
"                                                                ",
"                                                                ",
"                                                                ",
"                                                                ",
"                                                                ",
"                                                                ",
"                                                                ",
"                                                                ",
"                                                                ",
"                                                                ",
"                                                                ",
"                                                                ",
"                                                                ",
"                                                                ",
"                           ........                             ",
"                          ..........                            ",
"                         ...oooooo...                           ",
"                        ...o......o...                          ",
"                       ...o...XX...o...                         ",
"                       ..o...XXXX...o..                         ",
"                       ..o..XXXXXX..o..                         ",
"                       ..o.XXXXXXXX.o..                         ",
"                       ..o.XXXXXXXX.o..                         ",
"                       ..o..XXXXXX..o..                         ",
"                       ..o...XXXX...o..                         ",
"                       ...o...XX...o...                         ",
"                        ...o......o...                          ",
"                         ...oooooo...                           ",
"                          ..........                            ",
"                           ........                             ",
"                                                                ",
"                                                                ",
"                                                                ",
"                                                                ",
"                                                                ",
"                                                                ",
"                                                                ",
"                                                                ",
"                                                                ",
"                                                                ",
"                                                                ",
"                                                                ",
"                                                                ",
"                                                                ",
"                                                                ",
"                                                                ",
"                                                                ",
"                                                                ",
"                                                                ",
"                                                                ",
"                                                                ",
"                                                                ",
"                                                                "
};
