/* XPM */
static char *_55bc3b78dc24a738dc523557ccb21beiFdfvuHy6GgtuVCR[] = {
/* columns rows colors chars-per-pixel */
"64 64 4 1 ",
"  c black",
". c #FFF200",
"X c #F2FF00",
"o c white",
/* pixels */
"                                                                ",
"                                                                ",
"                                                                ",
"                                                                ",
"                                                                ",
"                                                                ",
"                  ...                         X                 ",
"                 ..XX                        ...                ",
"               ..XXXX                        X...               ",
"              ..XXXXX                        XXX...             ",
"             .XXXXXXXX                      XXXXX.X.            ",
"            .XXXXXXXXX                      XXXXXX.X.           ",
"           .XXXXXXXXXXX                    XXXXXXXX.X.          ",
"          .XXXXXXXXXXXX                    XXXXXXXXX.X.         ",
"         .XXXXXXXXXXXXX                   XXXXXXXXXXX.X.        ",
"        ..XXXXXXXXXXXXXX                  XXXXXXXXXXXX..X       ",
"        .XXXXXXXXXXXXXXX                 XXXXXXXXXXXXX.X.       ",
"       .XXXXXXXXXXXXXXXX                 XXXXXXXXXXXXXX.X.      ",
"      ............XXXXXXX               XXXXXXX............     ",
"      ............XXXXXXX               XXXXXXX............     ",
"      ............XXXXXXX              XXXXXXXX............     ",
"     .............XXXXXXXX             XXXXXXXX.............    ",
"     ................XXXXX            XXXX..XXX.............    ",
"    .................XXXXX            XXXX...................   ",
"    .................XXXXXX          XXXX....................   ",
"    .................XXXXXX          XXXX....................   ",
"    .................XXXXXXX        XXXXX....................   ",
"   ..................XXXXXXX        XXXXX.....................  ",
"   ..................XXXXXXX       XXXXXX.....................  ",
"   ..................XXXXXXXX      XXXXXX.XX..................  ",
"   ...............XXXXXXXXXXX     XXXXXXXXXX..................  ",
"   ...............XXXXXXXXXXX     XXXXXXXXXXX.X...............  ",
"   ...............XXXXXXXXXXXX   XXXXXXXXXXXX.X...............  ",
"   ...............XXXXXXXXXXXX   XXXXXXXXX..    ooXX..........  ",
"   .........................................    ooXX..........  ",
"   .......................................      oooo..........  ",
"   .......................................      oooo..........  ",
"   .......................................          ..........  ",
"    ......................................          .........   ",
"    ........................................      XX.........   ",
"    ........................................      XX.........   ",
"    .........................................................   ",
"     .......................................................    ",
"     .......................................................    ",
"      .....................................................     ",
"      .....................................................     ",
"      .....................................................     ",
"       .XXXXXXXXXXXXXXXXXXXXXXXXXXXXXXXXXXXXXXXXXXXXXXX.X.      ",
"        .XXXXXXXXXXXXXXXXXXXXXXXXXXXXXXXXXXXXXXXXXXXXX.X.       ",
"        ..XXXXXXXXXXXXXXXXXXXXXXXXXXXXXXXXXXXXXXXXXXXX..X       ",
"         .XXXXXXXXXXXXXXXXXXXXXXXXXXXXXXXXXXXXXXXXXXX.X.        ",
"          .XXXXXXXXXXXXXXXXXXXXXXXXXXXXXXXXXXXXXXXXX.X.         ",
"           .XXXXXXXXXXXXXXXXXXXXXXXXXXXXXXXXXXXXXXX.X.          ",
"            .XXXXXXXXXXXXXXXXXXXXXXXXXXXXXXXXXXXXX.X.           ",
"             .XXXXXXXXXXXXXXXXXXXXXXXXXXXXXXXXXXX.X.            ",
"              ..XXXXXXXXXXXXXXXXXXXXXXXXXXXXXXXX...             ",
"               ..XXXXXXXXXXXXXXXXXXXXXXXXXXXXX...X              ",
"                 ..XXXXXXXXXXXXXXXXXXXXXXXXXX...                ",
"                  ...XXXXXXXXXXXXXXXXXXXXXX...X                 ",
"                    ...XXXXXXXXXXXXXXXXX....                    ",
"                       ....XXXXXXXXXX.....                      ",
"                          ............                          ",
"                                                                ",
"                                                                "
};
