/* XPM */
static char *f52d877d57c54ec0c9c0b79ed01301f7R7MtelxtRJA7sxLJ[] = {
/* columns rows colors chars-per-pixel */
"64 64 2 1 ",
"  c #720899",
". c gray63",
/* pixels */
"                                                                ",
"                                                                ",
"                                                                ",
"                                                                ",
"                                                                ",
"                                                                ",
"                                                                ",
"                                                                ",
"          ...................      ...................          ",
"           .................        .................           ",
"        .   ...............   .  .   ...............   .        ",
"        ..   .............   ..  ..   .............   ..        ",
"        ...   ...........   ...  ...   ...........   ...        ",
"        ....   .........   ....  ....   .........   ....        ",
"        .....   .......   .....  .....   .......   .....        ",
"        ......   .....   ......  ......   .....   ......        ",
"        .......   ...   .......  .......   ...   .......        ",
"        ........   .   ........  ........   .   ........        ",
"        .........     .........  .........     .........        ",
"        ..........   ..........  ..........   ..........        ",
"        .........     .........  .........     .........        ",
"        ........   .   ........  ........   .   ........        ",
"        .......   ...   .......  .......   ...   .......        ",
"        ......   .....   ......  ......   .....   ......        ",
"        .....   .......   .....  .....   .......   .....        ",
"        ....   .........   ....  ....   .........   ....        ",
"        ...   ...........   ...  ...   ...........   ...        ",
"        ..   .............   ..  ..   .............   ..        ",
"        .   ...............   .  .   ...............   .        ",
"           .................  .  .  .................           ",
"          ....................    ....................          ",
"                               ..                               ",
"                               ..                               ",
"          ....................    ....................          ",
"           .................  .  .  .................           ",
"        .   ...............   .  .   ...............   .        ",
"        ..   .............   ..  ..   .............   ..        ",
"        ...   ...........   ...  ...   ...........   ...        ",
"        ....   .........   ....  ....   .........   ....        ",
"        .....   .......   .....  .....   .......   .....        ",
"        ......   .....   ......  ......   .....   ......        ",
"        .......   ...   .......  .......   ...   .......        ",
"        ........   .   ........  ........   .   ........        ",
"        .........     .........  .........     .........        ",
"        ..........   ..........  ..........   ..........        ",
"        .........     .........  .........     .........        ",
"        ........   .   ........  ........   .   ........        ",
"        .......   ...   .......  .......   ...   .......        ",
"        ......   .....   ......  ......   .....   ......        ",
"        .....   .......   .....  .....   .......   .....        ",
"        ....   .........   ....  ....   .........   ....        ",
"        ...   ...........   ...  ...   ...........   ...        ",
"        ..   .............   ..  ..   .............   ..        ",
"        .   ...............   .  .   ...............   .        ",
"           .................        .................           ",
"          ...................      ...................          ",
"                                                                ",
"                                                                ",
"                                                                ",
"                                                                ",
"                                                                ",
"                                                                ",
"                                                                ",
"                                                                "
};
